# xmcd
#
# Track frame offsets:
#	187
#	15092
#	32685
#	48032
#	62512
#	78422
#	96515
#	113972
#	129355
#	144117
#
# Disc length: 2126 seconds
# Revision: 1
# Processed by: cddbd v1.5.2PL0 Copyright (c) Steve Scherf et al.
# Submitted via: dBpowerAMP V12.0
#
DISCID=6f084c0a
DTITLE=Oak Ridge Boys, The - Deliver
DYEAR=1983
DGENRE=Country
TTITLE0=Ozark Mountain Jubilee
TTITLE1=When You Get to the Heart
TTITLE2=Alice in Wonderland
TTITLE3=Ain't No Cure for the Rock and Roll
TTITLE4=In the Pines
TTITLE5=I Guess It Never Hurts to Hurt Sometimes
TTITLE6=Through My Eyes
TTITLE7=Break My Mind
TTITLE8=Still Holding On
TTITLE9=Down Deep Inside
EXTD=
EXTT0=
EXTT1=
EXTT2=
EXTT3=
EXTT4=
EXTT5=
EXTT6=
EXTT7=
EXTT8=
EXTT9=
PLAYORDER=
